{"title":"Enrique Iglesias - Solo Me Importas Tu (h264/mp4)","uid":7094401,"size":80375741,"categoryP":"video","categoryS":"music_videos","magnet":"?xt=urn:btih:8847bd13f6bb54587c96d852fd1a9de0be7610c0&amp;dn=Enrique+Iglesias+-+Solo+Me+Importas+Tu+%28h264%2Fmp4%29&amp;tr=udp%3A%2F%2Ftracker.openbittorrent.com%3A80&amp;tr=udp%3A%2F%2Fopen.demonii.com%3A1337&amp;tr=udp%3A%2F%2Ftracker.coppersurfer.tk%3A6969&amp;tr=udp%3A%2F%2Fexodus.desync.com%3A6969","seeders":2,"leechers":0,"uploader":"MusicVideos-HQ","files":1,"time":1331489682,"description":"General\n\n\nFormat                           : MPEG-4\nFormat profile                   : Base Media\nCodec ID                         : isom\nFile size                        : 76.7 MiB\nDuration                         : 3mn 31s\nOverall bit rate                 : 3 042 Kbps\nEncoded date                     : UTC 2012-03-07 16:16:57\nTagged date                      : UTC 2012-03-07 16:16:57\n\nVideo\nID                               : 1\nFormat                           : AVC\nFormat/Info                      : Advanced Video Codec\nFormat profile                   : &lt;a class=&quot;__cf_email__&quot; href=&quot;/cdn-cgi/l/email-protection&quot; data-cfemail=&quot;4c04252b240c007f627c&quot;&gt;[email&amp;#160;protected]&lt;/a&gt;&lt;script cf-hash='f9e31' type=&quot;text/javascript&quot;&gt;\n/* &lt;![CDATA[ */!function(){try{var t=&quot;currentScript&quot;in document?document.currentScript:function(){for(var t=document.getElementsByTagName(&quot;script&quot;),e=t.length;e--;)if(t[e].getAttribute(&quot;cf-hash&quot;))return t[e]}();if(t&amp;&amp;t.previousSibling){var e,r,n,i,c=t.previousSibling,a=c.getAttribute(&quot;data-cfemail&quot;);if(a){for(e=&quot;&quot;,r=parseInt(a.substr(0,2),16),n=2;a.length-n;n+=2)i=parseInt(a.substr(n,2),16)^r,e+=String.fromCharCode(i);e=document.createTextNode(e),c.parentNode.replaceChild(e,c)}}}catch(u){}}();/* ]]&gt; */&lt;/script&gt;\nFormat settings, CABAC           : Yes\nFormat settings, ReFrames        : 2 frames\nCodec ID                         : avc1\nCodec ID/Info                    : Advanced Video Coding\nDuration                         : 3mn 31s\nBit rate mode                    : Variable\nBit rate                         : 2 966 Kbps\nMaximum bit rate                 : 7 060 Kbps\nWidth                            : 720 pixels\nHeight                           : 480 pixels\nDisplay aspect ratio             : 4:3\nOriginal display aspect ratio    : 4:3\nFrame rate mode                  : Constant\nFrame rate                       : 25.000 fps\nStandard                         : NTSC\nColor space                      : YUV\nChroma subsampling               : 4:2:0\nBit depth                        : 8 bits\nScan type                        : Progressive\nBits/(Pixel*Frame)               : 0.343\nStream size                      : 74.8 MiB (98%)\n\n\nAudio\nID                               : 2\nFormat                           : AAC\nFormat/Info                      : Advanced Audio Codec\nFormat profile                   : LC\nCodec ID                         : 40\nDuration                         : 3mn 31s\nBit rate mode                    : Variable\nBit rate                         : 66.15 Kbps\nMaximum bit rate                 : 78.7 Kbps\nChannel(s)                       : 2 channels\nChannel positions                : Front: L R\nSampling rate                    : 48.0 KHz\nCompression mode                 : Lossy\nStream size                      : 1.69 MiB (2%)\n\n\n","torrent":{"xt":"urn:btih:8847bd13f6bb54587c96d852fd1a9de0be7610c0","amp;dn":"Enrique+Iglesias+-+Solo+Me+Importas+Tu+%28h264%2Fmp4%29","amp;tr":["udp%3A%2F%2Ftracker.openbittorrent.com%3A80","udp%3A%2F%2Fopen.demonii.com%3A1337","udp%3A%2F%2Ftracker.coppersurfer.tk%3A6969","udp%3A%2F%2Fexodus.desync.com%3A6969"],"infoHash":"8847bd13f6bb54587c96d852fd1a9de0be7610c0","infoHashBuffer":{"type":"Buffer","data":[136,71,189,19,246,187,84,88,124,150,216,82,253,26,157,224,190,118,16,192]},"announce":[],"urlList":[]}}